<?xml version="1.0" encoding="utf-8"?>
<!-- Generator: Adobe Illustrator 23.0.6, SVG Export Plug-In . SVG Version: 6.00 Build 0)  -->
<svg version="1.1" id="Слой_1" xmlns="http://www.w3.org/2000/svg" xmlns:xlink="http://www.w3.org/1999/xlink" x="0px" y="0px"
	 viewBox="0 0 430.3 64.1" style="enable-background:new 0 0 430.3 64.1;" xml:space="preserve">
<style type="text/css">
	.st0{fill-rule:evenodd;clip-rule:evenodd;fill:#434242;}
	.st1{fill-rule:evenodd;clip-rule:evenodd;fill:#FEFEFE;}
	.st2{fill-rule:evenodd;clip-rule:evenodd;fill:#E31E24;}
	.st3{fill:#FEFEFE;}
	.st4{fill:#434242;}
</style>
<g id="Слой_x0020_1">
	<g id="_1864350141200">
		<polygon class="st0" points="0,-0.9 67.2,-0.9 67.2,66.3 0,66.3 		"/>
		<path class="st1" d="M34.1,8.2c13.3,0,24.1,11.2,24.1,24.9c0,13.7-10.8,24.9-24.1,24.9c-6.9,0-13-3.1-17.3-7.5
			c-6.3-6.6-7.7-15.6-4.5-24c3.3-8.8,10.5-11.8,12-12.7C17.2,15.9,2.9,24.1,0,45.1c0-7.5,0-18.3,0-25.8C11.9,10.9,22.1,8.3,34.1,8.2
			z"/>
		<path class="st2" d="M33.7,22.2c5.9,0,10.7,4.8,10.7,10.7c0,5.9-4.8,10.7-10.7,10.7c-5.9,0-10.7-4.8-10.7-10.7
			C23,27,27.8,22.2,33.7,22.2z"/>
		<path class="st0" d="M144.6-0.7c11.2,0,20.3,8.8,20.3,19.6c0,10.9-9.1,19.6-20.3,19.6c-11.2,0-20.3-8.8-20.3-19.6
			C124.3,8.1,133.4-0.7,144.6-0.7z M144.6,10.1c5.2,0,9.4,3.9,9.4,8.8s-4.2,8.8-9.4,8.8c-5.2,0-9.4-3.9-9.4-8.8
			S139.4,10.1,144.6,10.1z"/>
		<path class="st0" d="M409.4-0.7c11.2,0,20.3,8.8,20.3,19.6c0,10.9-9.1,19.6-20.3,19.6c-11.2,0-20.3-8.8-20.3-19.6
			C389.1,8.1,398.2-0.7,409.4-0.7z M409.4,10.1c5.2,0,9.4,3.9,9.4,8.8s-4.2,8.8-9.4,8.8c-5.2,0-9.4-3.9-9.4-8.8
			S404.1,10.1,409.4,10.1z"/>
		<path class="st0" d="M226.3,34.6h-13.7l-1.3,3.7h-11.6l12.4-34.7l1.3-3.6h12.4l1.3,3.7l12.1,34.7h-11.5L226.3,34.6z M222.5,23.7
			l-3-8.5l-3,8.5H222.5z"/>
		<path class="st3" d="M204.7,34.8l10.7-30l0.5-1.3h1.3h4.6h1.4l0.4,1.3l10.5,30h-4l-1.3-3.7H210l-1.3,3.7H204.7z M227.5,27.3l-7-20
			h-2l-7.1,20H227.5z"/>
		<path class="st0" d="M343.3,25.3l-11.5,0v13.1h-10.9V-0.1h21.5l0.3,0c4.4,0.5,8.3,2.6,10.3,6.7c0.9,1.8,1.4,3.8,1.3,5.8
			c0,1.9-0.5,3.9-1.3,5.6C351.4,21.6,347.4,25,343.3,25.3z M331.8,10.7v3.7h10.4c0.5-0.1,0.8-0.5,1-0.9c0.2-0.3,0.3-0.7,0.3-1.1
			c0-0.3-0.1-0.6-0.2-0.8c-0.3-0.5-1-0.7-1.5-0.8H331.8z"/>
		<path class="st3" d="M328.3,21.7v13.1h-3.8V5.3V3.4h1.9h15.8h0.1l0.1,0c3.9,0.4,6.3,2.3,7.6,4.8c0.7,1.3,0.9,2.7,0.9,4.2
			c0,1.4-0.3,2.8-1,4.1c-1.2,2.7-3.7,4.8-7,5.1C336.4,21.8,334.5,21.6,328.3,21.7z M328.3,7.1v10.8h14.3c1.8-0.2,3.1-1.4,3.9-3
			c0.4-0.8,0.6-1.7,0.6-2.6c0-0.9-0.2-1.7-0.5-2.5c-0.7-1.4-2.1-2.4-4.4-2.7H328.3z"/>
		<polygon class="st0" points="367.8,11.6 378.3,-0.1 392.9,-0.1 376.5,18.2 393.6,38.3 379.3,38.3 367.8,24.7 367.8,38.3 
			356.9,38.3 356.9,-0.1 367.8,-0.1 		"/>
		<polygon class="st3" points="360.4,34.8 360.4,3.4 364.2,3.4 364.2,16.7 368.1,16.7 379.9,3.4 384.9,3.4 371.8,18.1 385.9,34.8 
			381,34.8 368.8,20.5 364.2,20.5 364.2,34.8 		"/>
		<path class="st3" d="M409.4,2.9L409.4,2.9L409.4,2.9c4.6,0,8.8,1.8,11.9,4.7c3,2.9,4.9,6.9,4.9,11.3h0l0,0l0,0h0
			c0,4.5-1.9,8.5-4.9,11.4c-3.1,2.9-7.3,4.7-11.9,4.7l0,0l0,0l0,0l0,0c-4.6,0-8.8-1.8-11.9-4.7c-3.1-2.9-4.9-6.9-5-11.4l0,0l0,0l0,0
			l0,0c0-4.4,1.9-8.4,5-11.3C400.6,4.7,404.8,2.9,409.4,2.9L409.4,2.9L409.4,2.9z M409.4,6.7L409.4,6.7L409.4,6.7L409.4,6.7
			L409.4,6.7c-3.6,0-6.9,1.4-9.2,3.7c-2.4,2.2-3.8,5.3-3.8,8.6l0,0l0,0l0,0l0,0c0,3.4,1.4,6.5,3.8,8.7c2.4,2.2,5.6,3.6,9.2,3.6l0,0
			l0,0l0,0l0,0c3.6,0,6.9-1.4,9.2-3.6c2.4-2.2,3.8-5.3,3.8-8.7l0,0l0,0l0,0l0,0c0-3.4-1.4-6.4-3.8-8.6C416.3,8.1,413,6.7,409.4,6.7z
			"/>
		<path class="st0" d="M306.9,34.6h-13.7l-1.3,3.7h-11.6l12.4-34.7l1.3-3.6h12.4l1.3,3.7l12.1,34.7h-11.5L306.9,34.6z M303.1,23.7
			l-3-8.5l-3,8.5H303.1z"/>
		<path class="st3" d="M285.3,34.8l10.7-30l0.5-1.3h1.3h4.6h1.4l0.4,1.3l10.5,30h-4l-1.3-3.7h-18.7l-1.3,3.7H285.3z M308.1,27.3
			l-7-20h-2l-7.1,20H308.1z"/>
		<path class="st3" d="M144.5,2.9L144.5,2.9L144.5,2.9c4.6,0,8.8,1.8,11.9,4.7c3.1,2.9,4.9,6.9,4.9,11.3h0l0,0l0,0h0
			c0,4.5-1.9,8.5-4.9,11.4c-3.1,2.9-7.3,4.7-11.9,4.7l0,0l0,0l0,0l0,0c-4.6,0-8.8-1.8-11.9-4.7c-3.1-2.9-4.9-6.9-4.9-11.4h0l0,0l0,0
			h0c0-4.4,1.9-8.4,4.9-11.3S139.9,2.9,144.5,2.9L144.5,2.9L144.5,2.9z M144.5,6.7L144.5,6.7L144.5,6.7L144.5,6.7L144.5,6.7
			c-3.6,0-6.9,1.4-9.2,3.7c-2.4,2.2-3.8,5.3-3.8,8.6l0,0l0,0l0,0l0,0c0,3.4,1.4,6.5,3.8,8.7c2.4,2.2,5.6,3.6,9.2,3.6l0,0l0,0l0,0
			l0,0c3.6,0,6.9-1.4,9.2-3.6c2.4-2.2,3.8-5.3,3.8-8.7l0,0l0,0l0,0l0,0c0-3.4-1.4-6.4-3.8-8.6C151.4,8.1,148.2,6.7,144.5,6.7z"/>
		<polygon class="st0" points="99.8,18.3 106.2,-0.3 119.6,-0.3 123.8,38.4 112.9,38.4 110.8,19.6 104.3,38.4 95.2,38.4 88.7,19.6 
			86.6,38.4 75.7,38.4 79.9,-0.3 93.3,-0.3 94.6,3.4 		"/>
		<polygon class="st3" points="79.6,34.8 82.9,5 83.1,3.3 84.8,3.3 89.4,3.3 90.8,3.3 91.2,4.5 99.8,29.1 108.3,4.5 108.7,3.3 
			110.1,3.3 114.7,3.3 116.4,3.3 116.6,5 119.9,34.8 116.1,34.8 113,7.1 111.4,7.1 101.8,34.8 97.7,34.8 88.1,7.1 86.5,7.1 
			83.5,34.8 		"/>
		<path class="st0" d="M187.5-0.7c4.1,0,7.9,1.2,11.1,3.2l-5,9.7c-1.6-1.3-3.7-2-6-2c-5.2,0-9.4,3.9-9.4,8.8s4.2,8.8,9.4,8.8
			c2.5,0,4.8-0.9,6.5-2.4l5,9.8c-3.3,2.2-7.3,3.5-11.6,3.5c-11.2,0-20.3-8.8-20.3-19.6C167.2,8.1,176.3-0.7,187.5-0.7z"/>
		<path class="st3" d="M187.6,2.9L187.6,2.9L187.6,2.9c2.4,0,4.7,0.5,6.7,1.3l-1.8,3.3c-1.5-0.6-3.2-0.9-5-0.9v0l0,0l0,0v0
			c-3.6,0-6.9,1.4-9.2,3.7c-2.4,2.2-3.8,5.3-3.8,8.6l0,0l0,0l0,0l0,0c0,3.4,1.4,6.5,3.8,8.7c2.4,2.2,5.6,3.6,9.2,3.6l0,0l0,0l0,0
			l0,0c2,0,3.9-0.4,5.6-1.2l1.8,3.3c-2.2,1.1-4.8,1.7-7.5,1.7l0,0l0,0l0,0l0,0c-4.6,0-8.8-1.8-11.9-4.7c-3.1-2.9-5-6.9-5-11.4l0,0
			l0,0l0,0l0,0c0-4.4,1.9-8.4,5-11.3C178.7,4.7,182.9,2.9,187.6,2.9L187.6,2.9L187.6,2.9z"/>
		<path class="st0" d="M259.7,15.2c-3.6,10.1-5.5,15.5-8.3,23.1h-11.6l12.4-34.7l1.3-3.6H266l1.3,3.7l12.1,34.7h-11.6
			C265.2,31,263.2,25.1,259.7,15.2z"/>
		<path class="st3" d="M244.9,34.8l10.7-30l0.5-1.3h1.3h4.6h1.3l0.5,1.3l10.5,30h-4c-3.7-10.4-2.9-8.2-9.6-27.4h-2
			c-6.5,18.1-6.3,17.5-9.8,27.4H244.9z"/>
		<g>
			<path class="st4" d="M82,62.4h-3.5L78,64.1h-3.2L78.6,54H82l3.8,10.1h-3.3L82,62.4z M81.4,60.2l-1.1-3.6l-1.1,3.6H81.4z M87,54
				h5.2c1.1,0,2,0.3,2.6,0.8c0.6,0.5,0.9,1.3,0.9,2.3c0,1-0.3,1.8-0.9,2.4c-0.6,0.6-1.6,0.9-2.8,0.9h-1.7v3.7H87V54z M90.1,58.3h0.8
				c0.6,0,1-0.1,1.3-0.3c0.3-0.2,0.4-0.5,0.4-0.8c0-0.3-0.1-0.6-0.3-0.8C92,56.2,91.6,56,91,56h-0.9V58.3z M97.4,54h8.4v2.2h-5.2
				v1.6h4.8v2.1h-4.8v2h5.4v2.3h-8.5V54z M107.8,54h3.1v3.5h3.4V54h3.1v10.1h-3.1V60h-3.4v4.1h-3.1V54z M130.3,66.3h-2.5v-2.2h-6.5
				v2.2h-2.5v-4.5h1c0.6-1.6,0.9-3.5,0.9-5.5V54h8.5v7.8h1.1V66.3z M126.1,61.8v-5.3h-2.5v0.1c0,1.4-0.2,3.1-0.7,5.2H126.1z
				 M138,62.4h-3.5l-0.5,1.7h-3.2l3.8-10.1h3.4l3.8,10.1h-3.3L138,62.4z M137.3,60.2l-1.1-3.6l-1.1,3.6H137.3z M156.1,54h3.4
				l1.4,4.2l1.4-4.2h3.2l-3.3,7.8c-0.3,0.6-0.5,1.1-0.7,1.4c-0.2,0.3-0.5,0.6-0.9,0.8s-0.9,0.3-1.6,0.3c-0.4,0-1-0.1-1.9-0.1V62
				c0.5,0.1,0.9,0.1,1.1,0.1c0.7,0,1.2-0.3,1.3-0.8L156.1,54z M176.5,64.1h-3.1v-7.6h-3.4v7.6h-3.1V54h9.7V64.1z M178.7,54h5.2
				c1.1,0,2,0.3,2.6,0.8c0.6,0.5,0.9,1.3,0.9,2.3c0,1-0.3,1.8-0.9,2.4c-0.6,0.6-1.6,0.9-2.8,0.9h-1.7v3.7h-3.1V54z M181.8,58.3h0.8
				c0.6,0,1-0.1,1.3-0.3c0.3-0.2,0.4-0.5,0.4-0.8c0-0.3-0.1-0.6-0.3-0.8c-0.2-0.2-0.6-0.3-1.2-0.3h-0.9V58.3z M195.3,62.4h-3.5
				l-0.5,1.7h-3.2l3.8-10.1h3.4l3.8,10.1h-3.3L195.3,62.4z M194.7,60.2l-1.1-3.6l-1.1,3.6H194.7z M200.3,54h5.9c1,0,1.7,0.3,2.2,0.7
				c0.5,0.5,0.8,1.1,0.8,1.8c0,0.6-0.2,1.1-0.6,1.5c-0.2,0.3-0.6,0.5-1.1,0.7c0.7,0.2,1.2,0.5,1.6,0.9c0.3,0.4,0.5,1,0.5,1.6
				c0,0.5-0.1,1-0.4,1.4c-0.3,0.4-0.6,0.7-1,1c-0.3,0.1-0.7,0.3-1.2,0.3c-0.7,0.1-1.2,0.1-1.4,0.1h-5.4V54z M203.5,57.9h1.4
				c0.5,0,0.8-0.1,1-0.3c0.2-0.2,0.3-0.4,0.3-0.7c0-0.3-0.1-0.5-0.3-0.7c-0.2-0.2-0.5-0.3-1-0.3h-1.4V57.9z M203.5,61.9h1.6
				c0.5,0,0.9-0.1,1.1-0.3c0.2-0.2,0.3-0.4,0.3-0.8c0-0.3-0.1-0.5-0.3-0.7c-0.2-0.2-0.6-0.3-1.1-0.3h-1.6V61.9z M220.8,64.1h-3.1
				v-7.6h-2.4v3.1c0,1.3-0.1,2.2-0.2,2.8c-0.1,0.6-0.5,1-1,1.3s-1.3,0.4-2.4,0.4c-0.3,0-0.7-0.1-1.2-0.1V62h0.5
				c0.4,0,0.7-0.1,0.9-0.3c0.2-0.2,0.3-0.5,0.3-1V54h8.7V64.1z M223,54h8.4v2.2h-5.2v1.6h4.9v2.1h-4.9v2h5.4v2.3H223V54z M233.4,54
				h3.1v3.5h3.4V54h3.1v10.1H240V60h-3.4v4.1h-3.1V54z M255.1,54v10.1h-2.9v-5.6l-3.8,5.6h-2.9V54h2.9v5.6l3.8-5.6H255.1z M257.3,54
				h8.4v2.2h-5.2v1.6h4.8v2.1h-4.8v2h5.4v2.3h-8.5V54z M272.5,54h3.1v3.5h3.4V54h3.1v10.1H279V60h-3.4v4.1h-3.1V54z M284.4,54h8.4
				v2.2h-5.2v1.6h4.8v2.1h-4.8v2h5.4v2.3h-8.5V54z M305.4,66.3h-2.5v-2.2h-6.5v2.2h-2.5v-4.5h1c0.6-1.6,0.9-3.5,0.9-5.5V54h8.5v7.8
				h1.1V66.3z M301.2,61.8v-5.3h-2.5v0.1c0,1.4-0.3,3.1-0.7,5.2H301.2z M306.8,54h5.9c1,0,1.7,0.3,2.2,0.7c0.5,0.5,0.8,1.1,0.8,1.8
				c0,0.6-0.2,1.1-0.6,1.5c-0.3,0.3-0.6,0.5-1.1,0.7c0.7,0.2,1.2,0.5,1.6,0.9s0.5,1,0.5,1.6c0,0.5-0.1,1-0.3,1.4
				c-0.3,0.4-0.6,0.7-1,1c-0.3,0.1-0.7,0.3-1.2,0.3c-0.7,0.1-1.2,0.1-1.4,0.1h-5.4V54z M310,57.9h1.4c0.5,0,0.8-0.1,1-0.3
				c0.2-0.2,0.3-0.4,0.3-0.7c0-0.3-0.1-0.5-0.3-0.7c-0.2-0.2-0.5-0.3-1-0.3H310V57.9z M310,61.9h1.6c0.5,0,0.9-0.1,1.1-0.3
				c0.2-0.2,0.3-0.4,0.3-0.8c0-0.3-0.1-0.5-0.3-0.7c-0.2-0.2-0.6-0.3-1.1-0.3H310V61.9z M327.7,54v10.1h-2.9v-5.6l-3.8,5.6H318V54
				h2.9v5.6l3.8-5.6H327.7z M344.2,64.1h-3.5l-1.2-2.6c-0.3-0.6-0.5-1-0.7-1.2c-0.2-0.1-0.4-0.2-0.7-0.2v4H335v-4
				c-0.3,0-0.5,0.1-0.7,0.2c-0.1,0.2-0.4,0.5-0.7,1.2l-1.2,2.6h-3.5l1.4-2.7c0.4-0.8,0.7-1.3,1.1-1.7s0.7-0.6,1.2-0.8
				c-0.3-0.1-0.6-0.3-0.8-0.5c-0.2-0.2-0.4-0.6-0.5-1c-0.2-0.5-0.4-0.8-0.6-1c-0.3-0.2-0.7-0.3-1.2-0.3h-0.2v-2.1
				c1.2,0,2,0.1,2.5,0.2c0.5,0.1,0.9,0.3,1.2,0.6c0.3,0.3,0.5,0.7,0.7,1.4c0.3,0.9,0.5,1.4,0.7,1.5c0.2,0.2,0.4,0.3,0.7,0.3V54h3.1
				v3.9c0.3,0,0.5-0.1,0.7-0.3c0.1-0.2,0.4-0.7,0.7-1.5c0.2-0.7,0.5-1.1,0.7-1.4c0.2-0.3,0.6-0.5,1.2-0.6c0.5-0.1,1.4-0.2,2.5-0.2
				V56h-0.1c-0.5,0-0.9,0.1-1.2,0.3c-0.3,0.2-0.5,0.5-0.7,1c-0.1,0.5-0.3,0.8-0.5,1c-0.2,0.2-0.4,0.4-0.8,0.5
				c0.5,0.1,0.9,0.4,1.2,0.8c0.3,0.4,0.7,0.9,1,1.7L344.2,64.1z M355.2,54v10.1h-2.9v-5.6l-3.8,5.6h-2.9V54h2.9v5.6l3.8-5.6H355.2z
				 M357.4,54h4.1l1.6,6.2l1.6-6.2h4.1v10.1h-2.6v-7.7l-2,7.7H362l-2-7.7v7.7h-2.6V54z M370.6,59c0-1.6,0.5-2.9,1.4-3.9
				c0.9-0.9,2.2-1.4,3.9-1.4c1.7,0,3,0.5,3.9,1.4c0.9,0.9,1.4,2.2,1.4,3.8c0,1.2-0.2,2.2-0.6,2.9c-0.4,0.7-1,1.3-1.7,1.8
				c-0.7,0.4-1.7,0.6-2.8,0.6c-1.1,0-2.1-0.2-2.8-0.5c-0.7-0.4-1.4-0.9-1.8-1.7C370.8,61.2,370.6,60.2,370.6,59z M373.7,59
				c0,1,0.2,1.8,0.6,2.2c0.4,0.5,0.9,0.7,1.6,0.7c0.7,0,1.2-0.2,1.6-0.7c0.4-0.4,0.6-1.2,0.6-2.4c0-0.9-0.2-1.6-0.6-2.1
				c-0.4-0.5-0.9-0.7-1.6-0.7c-0.6,0-1.1,0.2-1.5,0.7C373.9,57.3,373.7,58,373.7,59z M389.7,60l2.7,0.8c-0.2,0.8-0.5,1.4-0.9,1.9
				s-0.9,0.9-1.5,1.2c-0.6,0.3-1.3,0.4-2.2,0.4c-1.1,0-2-0.1-2.7-0.5c-0.7-0.3-1.3-0.9-1.8-1.7s-0.8-1.8-0.8-3.1
				c0-1.7,0.5-3,1.3-3.9c0.9-0.9,2.2-1.4,3.8-1.4c1.3,0,2.3,0.3,3,0.8c0.7,0.5,1.3,1.3,1.6,2.4l-2.7,0.6c-0.1-0.3-0.2-0.5-0.3-0.7
				c-0.2-0.2-0.4-0.4-0.7-0.5c-0.3-0.1-0.5-0.2-0.9-0.2c-0.7,0-1.2,0.3-1.6,0.9c-0.3,0.4-0.4,1.1-0.4,2c0,1.1,0.2,1.9,0.5,2.3
				c0.3,0.4,0.8,0.6,1.4,0.6c0.6,0,1.1-0.1,1.4-0.5C389.3,61.1,389.5,60.6,389.7,60z M393.4,54h9.5v2.5h-3.2v7.6h-3.1v-7.6h-3.2V54z
				 M407.7,57.9h1.7c1.5,0,2.7,0.3,3.4,0.8c0.7,0.6,1.1,1.4,1.1,2.5c0,0.9-0.3,1.7-1,2.2c-0.7,0.5-1.6,0.7-2.9,0.7h-5.4V54h3.1V57.9
				z M407.7,61.9h1.6c1,0,1.5-0.3,1.5-1c0-0.6-0.5-0.9-1.5-0.9h-1.6V61.9z M420,57.5c0.3-1.2,0.9-2.1,1.7-2.7c0.9-0.7,2-1,3.4-1
				c1.7,0,3,0.5,3.9,1.4c0.9,0.9,1.4,2.2,1.4,3.8c0,1.7-0.5,3-1.3,3.9c-0.9,0.9-2.2,1.4-3.8,1.4c-1.7,0-3-0.4-3.8-1.2
				c-0.8-0.8-1.3-1.8-1.4-3h-1.1v4.1h-3.1V54h3.1v3.5H420z M425.1,61.9c0.7,0,1.2-0.2,1.6-0.7c0.4-0.5,0.5-1.2,0.5-2.3
				c0-1.9-0.7-2.8-2.2-2.8c-1.4,0-2.1,1-2.1,2.9C423,61,423.7,61.9,425.1,61.9z"/>
			<path class="st0" d="M147.2,57.2c0.9,0,1.6,0.7,1.6,1.6s-0.7,1.6-1.6,1.6s-1.6-0.7-1.6-1.6S146.3,57.2,147.2,57.2z"/>
		</g>
	</g>
</g>
</svg>
